<svg xmlns="http://www.w3.org/2000/svg" viewBox="0 0 360 88" fill="none" role="img" aria-label="ManyDoors AI">
  <defs>
    <linearGradient id="doorGrad" x1="12" y1="62" x2="68" y2="8" gradientUnits="userSpaceOnUse">
      <stop offset="0%" stop-color="#1e272e"/>
      <stop offset="42%" stop-color="#208b8b"/>
      <stop offset="74%" stop-color="#00d2d3"/>
      <stop offset="100%" stop-color="#f9ca24"/>
    </linearGradient>
    <linearGradient id="wordGrad" x1="96" y1="58" x2="340" y2="24" gradientUnits="userSpaceOnUse">
      <stop offset="0%" stop-color="#1e272e"/>
      <stop offset="55%" stop-color="#2d3436"/>
      <stop offset="100%" stop-color="#1e272e"/>
    </linearGradient>
  </defs>
  <!-- Door fan icon -->
  <g transform="translate(8 6)">
    <g stroke="url(#doorGrad)" stroke-width="2.4" stroke-linecap="round" fill="none">
      <path d="M34 12 L18 56" opacity="0.5"/>
      <path d="M34 12 L34 56"/>
      <path d="M34 12 L50 56" opacity="0.5"/>
      <path d="M34 14 L12 58" opacity="0.75"/>
      <path d="M34 14 L56 58" opacity="0.75"/>
      <path d="M26 18 C24 32 22 46 22 56 M42 18 C44 32 46 46 46 56" opacity="0.65"/>
    </g>
    <circle cx="34" cy="32" r="10" fill="#00d2d3" fill-opacity="0.15" stroke="url(#doorGrad)" stroke-width="2"/>
    <text x="34" y="36" text-anchor="middle" font-family="Inter, ui-sans-serif, system-ui, sans-serif" font-size="10" font-weight="800" fill="#1e272e">AI</text>
    <g stroke="#00d2d3" stroke-width="1.3" stroke-linecap="round" opacity="0.9">
      <path d="M34 22 L34 14 M34 42 L34 50 M22 32 L14 32 M46 32 L54 32"/>
      <path d="M26 26 L20 20 M42 26 L48 20 M26 38 L20 44 M42 38 L48 44"/>
    </g>
    <circle cx="34" cy="14" r="1.8" fill="#f9ca24"/>
    <circle cx="14" cy="32" r="1.5" fill="#00d2d3"/>
    <circle cx="54" cy="32" r="1.5" fill="#00d2d3"/>
    <circle cx="20" cy="44" r="1.3" fill="#208b8b"/>
    <circle cx="48" cy="44" r="1.3" fill="#208b8b"/>
  </g>
  <!-- Wordmark -->
  <text x="96" y="52" font-family="Inter, ui-sans-serif, system-ui, sans-serif" font-size="34" font-weight="800" fill="url(#wordGrad)">ManyDoors</text>
  <text x="286" y="52" font-family="Inter, ui-sans-serif, system-ui, sans-serif" font-size="26" font-weight="800" fill="#1e272e">AI</text>
  <!-- Constellation between wordmark and AI -->
  <g stroke="#00d2d3" stroke-width="1" opacity="0.55">
    <path d="M248 58 L262 44 L276 58 L262 72 Z"/>
    <circle cx="262" cy="50" r="1.4" fill="#f9ca24"/>
    <circle cx="254" cy="58" r="1.1" fill="#00d2d3"/>
    <circle cx="270" cy="58" r="1.1" fill="#00d2d3"/>
    <circle cx="262" cy="64" r="1.1" fill="#208b8b"/>
    <path d="M254 58 L262 50 M270 58 L262 50 M254 58 L262 64 M270 58 L262 64"/>
  </g>
</svg>
